<svg width="40" height="40" viewBox="0 0 40 40" fill="none" xmlns="http://www.w3.org/2000/svg">
<rect width="40" height="40" rx="8" fill="#FFC35D"/>
<mask id="mask0" mask-type="alpha" maskUnits="userSpaceOnUse" x="0" y="0" width="40" height="40">
<rect width="40" height="40" rx="8" fill="#FCE2B4"/>
</mask>
<g mask="url(#mask0)">
<path d="M0 40V20V0H15.3962H30.7925L32 24L27.1698 24.6154V27.3846V30.1538H23.2453C18.9217 30.1538 18.5718 30.3415 20.0619 31.86C20.7547 32.5665 21.0086 32.6154 23.9864 32.6154H27.1698V36.3077V40H13.5849H0Z" fill="#6C66B9"/>
<ellipse cx="7.84969" cy="16.6142" rx="3.62264" ry="3.69231" fill="white"/>
<path d="M27.1695 24.6139C27.1695 23.961 26.9151 23.3349 26.4622 22.8733C26.0093 22.4117 25.395 22.1523 24.7544 22.1523C24.1139 22.1523 23.4996 22.4117 23.0467 22.8733C22.5938 23.3349 22.3394 23.961 22.3394 24.6139L27.1695 24.6139Z" fill="#433A83"/>
</g>
</svg>
