<svg width="20" height="20" viewBox="0 0 18 18" fill="none" xmlns="http://www.w3.org/2000/svg">
<path d="M14.9375 0.874268H3.0625C2.31683 0.875095 1.60194 1.17168 1.07468 1.69894C0.547409 2.22621 0.250827 2.9411 0.25 3.68677V11.1868C0.250827 11.9324 0.547409 12.6473 1.07468 13.1746C1.60194 13.7019 2.31683 13.9984 3.0625 13.9993H4V16.4993C3.99997 16.6181 4.03382 16.7345 4.09757 16.8348C4.16133 16.9351 4.25236 17.0151 4.35999 17.0655C4.46761 17.1159 4.58737 17.1345 4.70522 17.1193C4.82308 17.104 4.93414 17.0555 5.02539 16.9793L8.59922 13.9993H14.9375C15.6832 13.9984 16.3981 13.7019 16.9253 13.1746C17.4526 12.6473 17.7492 11.9324 17.75 11.1868V3.68677C17.7492 2.9411 17.4526 2.22621 16.9253 1.69894C16.3981 1.17168 15.6832 0.875095 14.9375 0.874268ZM5.25 8.68677C5.00277 8.68677 4.7611 8.61346 4.55554 8.4761C4.34998 8.33875 4.18976 8.14353 4.09515 7.91512C4.00054 7.68671 3.97579 7.43538 4.02402 7.1929C4.07225 6.95043 4.1913 6.7277 4.36612 6.55288C4.54093 6.37807 4.76366 6.25902 5.00614 6.21079C5.24861 6.16255 5.49995 6.18731 5.72835 6.28192C5.95676 6.37653 6.15198 6.53674 6.28934 6.7423C6.42669 6.94787 6.5 7.18954 6.5 7.43677C6.5 7.76829 6.3683 8.08623 6.13388 8.32065C5.89946 8.55507 5.58152 8.68677 5.25 8.68677ZM9 8.68677C8.75277 8.68677 8.5111 8.61346 8.30554 8.4761C8.09997 8.33875 7.93976 8.14353 7.84515 7.91512C7.75054 7.68671 7.72579 7.43538 7.77402 7.1929C7.82225 6.95043 7.9413 6.7277 8.11612 6.55288C8.29093 6.37807 8.51366 6.25902 8.75614 6.21079C8.99861 6.16255 9.24995 6.18731 9.47835 6.28192C9.70676 6.37653 9.90198 6.53674 10.0393 6.7423C10.1767 6.94787 10.25 7.18954 10.25 7.43677C10.25 7.76829 10.1183 8.08623 9.88388 8.32065C9.64946 8.55507 9.33152 8.68677 9 8.68677ZM12.75 8.68677C12.5028 8.68677 12.2611 8.61346 12.0555 8.4761C11.85 8.33875 11.6898 8.14353 11.5951 7.91512C11.5005 7.68671 11.4758 7.43538 11.524 7.1929C11.5722 6.95043 11.6913 6.7277 11.8661 6.55288C12.0409 6.37807 12.2637 6.25902 12.5061 6.21079C12.7486 6.16255 12.9999 6.18731 13.2284 6.28192C13.4568 6.37653 13.652 6.53674 13.7893 6.7423C13.9267 6.94787 14 7.18954 14 7.43677C14 7.76829 13.8683 8.08623 13.6339 8.32065C13.3995 8.55507 13.0815 8.68677 12.75 8.68677Z" fill="#919EAB"/>
</svg>
